<svg id="Layer_1" data-name="Layer 1" xmlns="http://www.w3.org/2000/svg" viewBox="0 0 122 32"><defs><style>.cls-1{fill:#09f;}.cls-2{fill:#2b2b4f;}</style></defs><title>logo</title><path class="cls-1" d="M4.606,27.314A15.97,15.97,0,0,1,27.147,4.686,16,16,0,0,1,15.877,32H-0.062ZM14.283,6.4V25.6h3.188V6.4H14.283ZM7.908,11.2v9.6H11.1V11.2H7.908Zm12.752,0v9.6h3.188V11.2H20.66Z" transform="translate(0.063 0)"/><path class="cls-2" d="M47.056,13.65V26.659H43.125V6.36h3.048L56.712,19.682V6.388h3.93v20.27H57.452Z" transform="translate(0.063 0)"/><path class="cls-2" d="M68.418,26.945a5.647,5.647,0,0,1-2.023-.358,4.856,4.856,0,0,1-1.624-1,4.649,4.649,0,0,1-1.069-1.5,4.571,4.571,0,0,1-.384-1.887,4.179,4.179,0,0,1,.47-1.959A4.482,4.482,0,0,1,65.1,18.71a6.514,6.514,0,0,1,2.008-.986,8.731,8.731,0,0,1,2.564-.357,11.044,11.044,0,0,1,1.951.171,7.986,7.986,0,0,1,1.7.487V17.166a3.013,3.013,0,0,0-.841-2.286,3.486,3.486,0,0,0-2.492-.8,6.6,6.6,0,0,0-2.337.428,10.876,10.876,0,0,0-2.336,1.258l-1.168-2.431a10.993,10.993,0,0,1,6.21-1.915,7.254,7.254,0,0,1,5,1.587,5.825,5.825,0,0,1,1.78,4.589v4.66a1.353,1.353,0,0,0,.214.858,0.933,0.933,0,0,0,.7.285v3.26a8.479,8.479,0,0,1-1.681.2,2.533,2.533,0,0,1-1.666-.487,2.088,2.088,0,0,1-.727-1.286l-0.085-.829a6.62,6.62,0,0,1-2.421,2A6.927,6.927,0,0,1,68.418,26.945Zm1.082-2.8a4.959,4.959,0,0,0,1.838-.344,3.323,3.323,0,0,0,1.353-.915,1.377,1.377,0,0,0,.627-1.086V20.082a9.442,9.442,0,0,0-1.482-.415,8.037,8.037,0,0,0-1.538-.157,4.07,4.07,0,0,0-2.421.672,2.018,2.018,0,0,0-.94,1.7,2.049,2.049,0,0,0,.74,1.616A2.682,2.682,0,0,0,69.5,24.143Z" transform="translate(0.063 0)"/><path class="cls-2" d="M103.879,26.659h-3.816V18.253a4.474,4.474,0,0,0-.613-2.63,1.989,1.989,0,0,0-1.694-.829,3.193,3.193,0,0,0-2.137.872A4.792,4.792,0,0,0,94.2,17.938v8.721H90.378V18.253a4.474,4.474,0,0,0-.613-2.63,1.988,1.988,0,0,0-1.694-.829,3.239,3.239,0,0,0-2.122.858,4.658,4.658,0,0,0-1.439,2.258v8.749H80.694V11.678h3.447v2.773A5.706,5.706,0,0,1,86.4,12.206a6.754,6.754,0,0,1,3.29-.786,4.222,4.222,0,0,1,2.906.915,4.1,4.1,0,0,1,1.31,2.259,6.455,6.455,0,0,1,2.307-2.359,6.213,6.213,0,0,1,3.19-.815,4.425,4.425,0,0,1,2.251.514,3.721,3.721,0,0,1,1.367,1.345,5.649,5.649,0,0,1,.669,1.887,12.383,12.383,0,0,1,.185,2.144v9.35Z" transform="translate(0.063 0)"/><path class="cls-2" d="M114.133,26.945a8.256,8.256,0,0,1-3.247-.615,7.34,7.34,0,0,1-4.06-4.131,7.924,7.924,0,0,1-.555-2.946,8.363,8.363,0,0,1,.541-3.015,7.377,7.377,0,0,1,1.567-2.488,7.491,7.491,0,0,1,2.493-1.7,8.274,8.274,0,0,1,3.29-.629,8.073,8.073,0,0,1,3.261.629,7.519,7.519,0,0,1,2.45,1.686,7.193,7.193,0,0,1,1.538,2.459,8.2,8.2,0,0,1,.527,2.916c0,0.248,0,.487-0.014.715a2.925,2.925,0,0,1-.071.572H110.316a4.467,4.467,0,0,0,.427,1.572,3.9,3.9,0,0,0,.883,1.172,3.823,3.823,0,0,0,1.225.743,4,4,0,0,0,1.423.258,4.386,4.386,0,0,0,2.15-.557,2.948,2.948,0,0,0,1.381-1.473l3.276,0.915a6.676,6.676,0,0,1-2.635,2.817A8.141,8.141,0,0,1,114.133,26.945Zm3.873-9.036a3.992,3.992,0,0,0-1.238-2.7,3.88,3.88,0,0,0-5.285.014,3.919,3.919,0,0,0-.84,1.172,4.129,4.129,0,0,0-.384,1.514h7.747Z" transform="translate(0.063 0)"/></svg>